{
    "accessors": [{
            "bufferView": 2,
            "componentType": 5126,
            "count": 7875,
            "max": [
                30.986862182617188,
                33.5623779296875,
                69.074867248535156
            ],
            "min": [-25.506893157958984, -34.004436492919922, -4.4012067519361153e-06],
            "type": "VEC3"
        },
        {
            "bufferView": 2,
            "byteOffset": 94500,
            "componentType": 5126,
            "count": 7875,
            "max": [
                1,
                1,
                1
            ],
            "min": [-1, -1, -1],
            "type": "VEC3"
        },
        {
            "bufferView": 3,
            "componentType": 5126,
            "count": 7875,
            "max": [
                1,
                1,
                1,
                1
            ],
            "min": [-1, -1, -0.9998512864112854, -1],
            "type": "VEC4"
        },
        {
            "bufferView": 1,
            "componentType": 5126,
            "count": 7875,
            "max": [
                0.9977726936340332,
                0.99799996614456177
            ],
            "min": [
                0.0020000000949949026,
                0.0020000000949949026
            ],
            "type": "VEC2"
        },
        {
            "bufferView": 0,
            "componentType": 5125,
            "count": 29460,
            "max": [
                7874
            ],
            "min": [
                0
            ],
            "type": "SCALAR"
        }
    ],
    "asset": {
        "extras": {
            "author": "roughdominator (https://sketchfab.com/roughdominator)",
            "license": "CC-BY-4.0 (http://creativecommons.org/licenses/by/4.0/)",
            "source": "https://sketchfab.com/3d-models/treasure-chest-46eae8c3a3074263951d17b0973e9d92",
            "title": "Treasure Chest"
        },
        "generator": "Sketchfab-6.58.0",
        "version": "2.0"
    },
    "bufferViews": [{
            "buffer": 0,
            "byteLength": 117840,
            "byteOffset": 0,
            "name": "floatBufferViews",
            "target": 34963
        },
        {
            "buffer": 0,
            "byteLength": 63000,
            "byteOffset": 117840,
            "byteStride": 8,
            "name": "floatBufferViews",
            "target": 34962
        },
        {
            "buffer": 0,
            "byteLength": 189000,
            "byteOffset": 180840,
            "byteStride": 12,
            "name": "floatBufferViews",
            "target": 34962
        },
        {
            "buffer": 0,
            "byteLength": 126000,
            "byteOffset": 369840,
            "byteStride": 16,
            "name": "floatBufferViews",
            "target": 34962
        }
    ],
    "buffers": [{
        "byteLength": 495840,
        "uri": "scene.bin"
    }],
    "images": [{
            "uri": "textures/Material_27_baseColor.png"
        },
        {
            "uri": "textures/Material_27_metallicRoughness.png"
        },
        {
            "uri": "textures/Material_27_normal.png"
        }
    ],
    "materials": [{
        "doubleSided": true,
        "emissiveFactor": [
            0,
            0,
            0
        ],
        "name": "Material_27",
        "normalTexture": {
            "index": 2,
            "scale": 1,
            "texCoord": 0
        },
        "occlusionTexture": {
            "index": 1,
            "strength": 1,
            "texCoord": 0
        },
        "pbrMetallicRoughness": {
            "baseColorFactor": [
                1,
                1,
                1,
                1
            ],
            "baseColorTexture": {
                "index": 0,
                "texCoord": 0
            },
            "metallicFactor": 0,
            "metallicRoughnessTexture": {
                "index": 1,
                "texCoord": 0
            },
            "roughnessFactor": 0
        }
    }],
    "meshes": [{
        "name": "Box032_Material #27_0",
        "primitives": [{
            "attributes": {
                "NORMAL": 1,
                "POSITION": 0,
                "TANGENT": 2,
                "TEXCOORD_0": 3
            },
            "indices": 4,
            "material": 0,
            "mode": 4
        }]
    }],
    "nodes": [{
            "children": [
                1
            ],
            "name": "RootNode (gltf orientation matrix)",
            "rotation": [-0.70710678118654746, -0, -0,
                0.70710678118654757
            ]
        },
        {
            "children": [
                2
            ],
            "name": "RootNode (model correction matrix)"
        },
        {
            "children": [
                3
            ],
            "matrix": [
                1,
                0,
                0,
                0,
                0,
                0,
                1,
                0,
                0, -1,
                0,
                0,
                0,
                0,
                0,
                1
            ],
            "name": "0d082958daed46cfb683df9b7d530ffe.fbx"
        },
        {
            "children": [
                4
            ],
            "name": "RootNode"
        },
        {
            "children": [
                5
            ],
            "matrix": [
                1,
                0,
                0,
                0,
                0,
                2.2204460492503131e-16, -1,
                0,
                0,
                1,
                2.2204460492503131e-16,
                0,
                0,
                0,
                0,
                1
            ],
            "name": "Box032"
        },
        {
            "mesh": 0,
            "name": "Box032_Material #27_0"
        }
    ],
    "samplers": [{
        "magFilter": 9729,
        "minFilter": 9987,
        "wrapS": 10497,
        "wrapT": 10497
    }],
    "scene": 0,
    "scenes": [{
        "name": "OSG_Scene",
        "nodes": [
            0
        ]
    }],
    "textures": [{
            "sampler": 0,
            "source": 0
        },
        {
            "sampler": 0,
            "source": 1
        },
        {
            "sampler": 0,
            "source": 2
        }
    ]
}